HIERARCHY
ROOT hip
{
OFFSET 1.07 95.76 0.46
CHANNELS 6 Xposition Yposition Zposition Zrotation Xrotation Yrotation
JOINT abdomen
{
OFFSET -0.83 7.19 -0
CHANNELS 6 Xposition Yposition Zposition Zrotation Xrotation Yrotation
JOINT chest
{
OFFSET 0 16.54 -0
CHANNELS 6 Xposition Yposition Zposition Zrotation Xrotation Yrotation
JOINT neck
{
OFFSET 0 34.21 0
CHANNELS 6 Xposition Yposition Zposition Zrotation Xrotation Yrotation
JOINT head
{
OFFSET 0 6.29 0
CHANNELS 6 Xposition Yposition Zposition Zrotation Xrotation Yrotation
End Site
{
OFFSET 0 0 0
}
}
}
JOINT lCollar
{
OFFSET 4.06 26.61 -1.12
CHANNELS 6 Xposition Yposition Zposition Zrotation Xrotation Yrotation
JOINT lShldr
{
OFFSET 14.17 0 0
CHANNELS 6 Xposition Yposition Zposition Zrotation Xrotation Yrotation
JOINT lForeArm
{
OFFSET 26.12 0 0
CHANNELS 6 Xposition Yposition Zposition Zrotation Xrotation Yrotation
JOINT lHand
{
OFFSET 27.71 0 0
CHANNELS 6 Xposition Yposition Zposition Zrotation Xrotation Yrotation
JOINT lThumb1
{
OFFSET 2.29 -0.46 1.83
CHANNELS 6 Xposition Yposition Zposition Zrotation Xrotation Yrotation
JOINT lThumb2
{
OFFSET 5.29 0 0
CHANNELS 6 Xposition Yposition Zposition Zrotation Xrotation Yrotation
JOINT lThumb3
{
OFFSET 3.01 0 0
CHANNELS 6 Xposition Yposition Zposition Zrotation Xrotation Yrotation
End Site
{
OFFSET 0 0 0
}
}
}
}
JOINT lIndex1
{
OFFSET 9.37 0.29 2.59
CHANNELS 6 Xposition Yposition Zposition Zrotation Xrotation Yrotation
JOINT lIndex2
{
OFFSET 4.34 0 0
CHANNELS 6 Xposition Yposition Zposition Zrotation Xrotation Yrotation
JOINT lIndex3
{
OFFSET 2.16 0 0
CHANNELS 6 Xposition Yposition Zposition Zrotation Xrotation Yrotation
End Site
{
OFFSET 0 0 0
}
}
}
}
JOINT lMid1
{
OFFSET 9.47 0.83 0.29
CHANNELS 6 Xposition Yposition Zposition Zrotation Xrotation Yrotation
JOINT lMid2
{
OFFSET 4.77 0 0
CHANNELS 6 Xposition Yposition Zposition Zrotation Xrotation Yrotation
JOINT lMid3
{
OFFSET 2.87 0 0
CHANNELS 6 Xposition Yposition Zposition Zrotation Xrotation Yrotation
End Site
{
OFFSET 0 0 0
}
}
}
}
JOINT lRing1
{
OFFSET 8.65 1.01 -1.70
CHANNELS 6 Xposition Yposition Zposition Zrotation Xrotation Yrotation
JOINT lRing2
{
OFFSET 4.54 0 0
CHANNELS 6 Xposition Yposition Zposition Zrotation Xrotation Yrotation
JOINT lRing3
{
OFFSET 2.50 0 0
CHANNELS 6 Xposition Yposition Zposition Zrotation Xrotation Yrotation
End Site
{
OFFSET 0 0 0
}
}
}
}
JOINT lPinky1
{
OFFSET 7.69 0.66 -3.90
CHANNELS 6 Xposition Yposition Zposition Zrotation Xrotation Yrotation
JOINT lPinky2
{
OFFSET 3.21 0 0
CHANNELS 6 Xposition Yposition Zposition Zrotation Xrotation Yrotation
JOINT lPinky3
{
OFFSET 1.92 0 0
CHANNELS 6 Xposition Yposition Zposition Zrotation Xrotation Yrotation
End Site
{
OFFSET 0 0 0
}
}
}
}
}
}
}
}
JOINT rCollar
{
OFFSET -4.06 26.61 -1.12
CHANNELS 6 Xposition Yposition Zposition Zrotation Xrotation Yrotation
JOINT rShldr
{
OFFSET -14.17 0 0
CHANNELS 6 Xposition Yposition Zposition Zrotation Xrotation Yrotation
JOINT rForeArm
{
OFFSET -26.12 0 0
CHANNELS 6 Xposition Yposition Zposition Zrotation Xrotation Yrotation
JOINT rHand
{
OFFSET -27.71 0 0
CHANNELS 6 Xposition Yposition Zposition Zrotation Xrotation Yrotation
JOINT rThumb1
{
OFFSET -2.29 -0.46 1.83
CHANNELS 6 Xposition Yposition Zposition Zrotation Xrotation Yrotation
JOINT rThumb2
{
OFFSET -5.29 0 0
CHANNELS 6 Xposition Yposition Zposition Zrotation Xrotation Yrotation
JOINT rThumb3
{
OFFSET -3.01 0 0
CHANNELS 6 Xposition Yposition Zposition Zrotation Xrotation Yrotation
End Site
{
OFFSET 0 0 0
}
}
}
}
JOINT rIndex1
{
OFFSET -9.37 0.29 2.59
CHANNELS 6 Xposition Yposition Zposition Zrotation Xrotation Yrotation
JOINT rIndex2
{
OFFSET -4.34 0 0
CHANNELS 6 Xposition Yposition Zposition Zrotation Xrotation Yrotation
JOINT rIndex3
{
OFFSET -2.16 0 0
CHANNELS 6 Xposition Yposition Zposition Zrotation Xrotation Yrotation
End Site
{
OFFSET 0 0 0
}
}
}
}
JOINT rMid1
{
OFFSET -9.47 0.83 0.29
CHANNELS 6 Xposition Yposition Zposition Zrotation Xrotation Yrotation
JOINT rMid2
{
OFFSET -4.77 0 0
CHANNELS 6 Xposition Yposition Zposition Zrotation Xrotation Yrotation
JOINT rMid3
{
OFFSET -2.87 0 0
CHANNELS 6 Xposition Yposition Zposition Zrotation Xrotation Yrotation
End Site
{
OFFSET 0 0 0
}
}
}
}
JOINT rRing1
{
OFFSET -8.65 1.01 -1.70
CHANNELS 6 Xposition Yposition Zposition Zrotation Xrotation Yrotation
JOINT rRing2
{
OFFSET -4.54 0 0
CHANNELS 6 Xposition Yposition Zposition Zrotation Xrotation Yrotation
JOINT rRing3
{
OFFSET -2.50 0 0
CHANNELS 6 Xposition Yposition Zposition Zrotation Xrotation Yrotation
End Site
{
OFFSET 0 0 0
}
}
}
}
JOINT rPinky1
{
OFFSET -7.69 0.66 -3.90
CHANNELS 6 Xposition Yposition Zposition Zrotation Xrotation Yrotation
JOINT rPinky2
{
OFFSET -3.21 0 0
CHANNELS 6 Xposition Yposition Zposition Zrotation Xrotation Yrotation
JOINT rPinky3
{
OFFSET -1.92 0 0
CHANNELS 6 Xposition Yposition Zposition Zrotation Xrotation Yrotation
End Site
{
OFFSET 0 0 0
}
}
}
}
}
}
}
}
}
}
JOINT lThigh
{
OFFSET 8.73 -0 0
CHANNELS 6 Xposition Yposition Zposition Zrotation Xrotation Yrotation
JOINT lShin
{
OFFSET 0 -46.66 0
CHANNELS 6 Xposition Yposition Zposition Zrotation Xrotation Yrotation
JOINT lFoot
{
OFFSET 0 -40.14 0
CHANNELS 6 Xposition Yposition Zposition Zrotation Xrotation Yrotation
JOINT lToes
{
OFFSET 0 -8.88 14.22
CHANNELS 6 Xposition Yposition Zposition Zrotation Xrotation Yrotation
End Site
{
OFFSET 0 0 0
}
}
}
}
}
JOINT rThigh
{
OFFSET -8.73 0 -0
CHANNELS 6 Xposition Yposition Zposition Zrotation Xrotation Yrotation
JOINT rShin
{
OFFSET 0 -46.66 0
CHANNELS 6 Xposition Yposition Zposition Zrotation Xrotation Yrotation
JOINT rFoot
{
OFFSET 0 -40.14 0
CHANNELS 6 Xposition Yposition Zposition Zrotation Xrotation Yrotation
JOINT rToes
{
OFFSET 0 -8.88 14.22
CHANNELS 6 Xposition Yposition Zposition Zrotation Xrotation Yrotation
End Site
{
OFFSET 0 0 0
}
}
}
}
}
}
MOTION
Frames: 5
Frame Time: 0.03
1.07 91.90 0.46 -0.39 -2.77 -9.88 -0.53 7.22 0 2.98 0.58 -1.84 0 16.55 0 -2.46 8.25 -8.04 0 34.21 -0 -8.69 17.96 -5.06 0 6.29 0 9.38 -11.48 21.71 4.06 26.61 -1.12 -0.62 -4.64 6.99 14.17 0 0 -81.91 52.16 18.17 26.12 0 0 0 0 -23.76 27.71 0 0 4.91 -45.12 3.75 2.29 -0.46 1.83 60.44 57.14 -83.35 5.29 0 0 -43.69 3.00 4.61 3.01 0 0 15.87 1.85 0.92 9.37 0.29 2.59 -16.73 -0.71 6.80 4.34 0 0 -8.77 1.90 2.50 2.16 0 0 -10.17 1.85 0.92 9.47 0.83 0.29 -19.05 -4.30 6.10 4.77 0 0 -14.55 1.65 2.20 2.87 0 0 -7.07 1.85 1.33 8.65 1.01 -1.70 -19.92 1.24 6.31 4.54 0 0 -12.84 1.85 0.92 2.50 0 0 -3.17 1.85 0.92 7.69 0.66 -3.90 -15.93 -8.50 3.94 3.21 0 0 -11.57 1.85 0.92 1.92 0 0 -6.37 1.85 0.92 -4.06 26.61 -1.12 -0.26 -4.54 -3.85 -14.17 0 0 82.90 -29.30 16.24 -26.12 0 0 0 0 118.94 -27.71 0 0 -2.26 -22.79 27.89 -2.29 -0.46 1.83 -141.79 4.65 171.78 -5.29 0 0 24.80 0.35 22.00 -3.01 0 0 -10.64 -0.02 -0.33 -9.37 0.29 2.59 7.40 -3.36 -19.28 -4.34 0 0 8.29 0.18 -1.09 -2.16 0 0 10.45 -0.09 -0.99 -9.47 0.83 0.29 32.85 -1.32 -13.92 -4.77 0 0 31.23 -0.92 -2.11 -2.87 0 0 7.21 0.05 -2.14 -8.65 1.01 -1.70 22.56 -10.58 -17.10 -4.54 0 0 56.08 -0.62 -0.48 -2.50 0 0 9.02 -0 -1.26 -7.69 0.66 -3.90 17.28 -25.93 -8.78 -3.21 0 0 60.38 -3.86 -3.21 -1.92 0 0 60.70 -3.80 -3.14 8.73 -0 0 -0.84 -8.07 24.94 0 -46.66 0 0 30.94 0 0 -40.14 0 0.99 -21.47 -13.41 0 -8.88 14.22 0 0 0 -8.73 0 -0 -10.51 -33.97 -47.05 0 -46.66 0 0 70.86 0 0 -40.14 0 18.98 12.99 -13.94 0 -8.88 14.22 0 0 0 
1.07 91.90 0.46 -0.44 -2.76 -9.88 -0.54 7.22 0 3.03 0.58 -1.84 0 16.55 0 -2.47 8.25 -8.04 0 34.21 -0 -8.70 17.95 -5.06 0 6.29 0 9.39 -11.47 21.72 4.06 26.61 -1.12 -0.61 -4.63 7.00 14.17 0 0 -81.92 52.24 18.25 26.12 0 0 0 0 -23.85 27.71 0 0 4.91 -45.09 3.77 2.29 -0.46 1.83 60.49 57.14 -83.38 5.29 0 0 -43.70 3.03 4.62 3.01 0 0 15.87 1.88 0.94 9.37 0.29 2.59 -16.73 -0.68 6.82 4.34 0 0 -8.77 1.93 2.52 2.16 0 0 -10.17 1.88 0.94 9.47 0.83 0.29 -19.05 -4.28 6.12 4.77 0 0 -14.55 1.68 2.22 2.87 0 0 -7.07 1.88 1.34 8.65 1.01 -1.70 -19.92 1.27 6.32 4.54 0 0 -12.84 1.88 0.94 2.50 0 0 -3.17 1.88 0.94 7.69 0.66 -3.90 -15.93 -8.47 3.95 3.21 0 0 -11.57 1.88 0.94 1.92 0 0 -6.37 1.88 0.94 -4.06 26.61 -1.12 -0.26 -4.54 -3.85 -14.17 0 0 82.95 -29.37 16.25 -26.12 0 0 0 0 119.19 -27.71 0 0 -2.25 -22.84 27.94 -2.29 -0.46 1.83 -141.79 4.65 171.78 -5.29 0 0 24.80 0.35 22.00 -3.01 0 0 -10.64 -0.02 -0.33 -9.37 0.29 2.59 7.40 -3.36 -19.28 -4.34 0 0 8.29 0.18 -1.09 -2.16 0 0 10.45 -0.09 -0.99 -9.47 0.83 0.29 32.85 -1.32 -13.92 -4.77 0 0 31.23 -0.92 -2.11 -2.87 0 0 7.21 0.05 -2.14 -8.65 1.01 -1.70 22.56 -10.58 -17.10 -4.54 0 0 56.08 -0.62 -0.48 -2.50 0 0 9.02 -0 -1.26 -7.69 0.66 -3.90 17.28 -25.93 -8.78 -3.21 0 0 60.38 -3.86 -3.21 -1.92 0 0 60.70 -3.80 -3.14 8.73 -0 0 -0.79 -8.07 24.94 0 -46.66 0 0 30.95 0 0 -40.14 0 0.99 -21.48 -13.41 0 -8.88 14.22 0 0 0 -8.73 0 -0 -10.46 -33.97 -47.06 0 -46.66 0 0 70.88 0 0 -40.14 0 18.98 12.99 -13.94 0 -8.88 14.22 0 0 0 
1.07 91.90 0.46 -0.49 -2.75 -9.88 -0.54 7.21 0 3.07 0.58 -1.84 0 16.55 0 -2.48 8.25 -8.05 0 34.21 -0 -8.70 17.94 -5.07 0 6.29 0 9.40 -11.45 21.73 4.06 26.61 -1.12 -0.61 -4.63 7.01 14.17 0 0 -81.93 52.31 18.34 26.12 0 0 0 0 -23.93 27.71 0 0 4.91 -45.06 3.78 2.29 -0.46 1.83 60.55 57.15 -83.41 5.29 0 0 -43.70 3.06 4.64 3.01 0 0 15.87 1.91 0.95 9.37 0.29 2.59 -16.73 -0.65 6.83 4.34 0 0 -8.77 1.96 2.53 2.16 0 0 -10.17 1.91 0.95 9.47 0.83 0.29 -19.06 -4.25 6.13 4.77 0 0 -14.55 1.71 2.23 2.87 0 0 -7.07 1.90 1.36 8.65 1.01 -1.70 -19.92 1.30 6.33 4.54 0 0 -12.84 1.91 0.95 2.50 0 0 -3.17 1.91 0.95 7.69 0.66 -3.90 -15.93 -8.44 3.97 3.21 0 0 -11.57 1.91 0.95 1.92 0 0 -6.37 1.91 0.95 -4.06 26.61 -1.12 -0.27 -4.54 -3.86 -14.17 0 0 82.99 -29.43 16.27 -26.12 0 0 0 0 119.45 -27.71 0 0 -2.24 -22.88 27.99 -2.29 -0.46 1.83 -141.79 4.65 171.78 -5.29 0 0 24.80 0.35 22.00 -3.01 0 0 -10.64 -0.02 -0.33 -9.37 0.29 2.59 7.40 -3.36 -19.28 -4.34 0 0 8.29 0.18 -1.09 -2.16 0 0 10.45 -0.09 -0.99 -9.47 0.83 0.29 32.85 -1.32 -13.92 -4.77 0 0 31.23 -0.92 -2.11 -2.87 0 0 7.21 0.05 -2.14 -8.65 1.01 -1.70 22.56 -10.58 -17.10 -4.54 0 0 56.08 -0.62 -0.48 -2.50 0 0 9.02 -0 -1.26 -7.69 0.66 -3.90 17.28 -25.93 -8.78 -3.21 0 0 60.38 -3.86 -3.21 -1.92 0 0 60.70 -3.80 -3.14 8.73 -0 0 -0.74 -8.08 24.93 0 -46.66 0 0 30.96 0 0 -40.14 0 1.00 -21.48 -13.42 0 -8.88 14.22 0 0 0 -8.73 0 -0 -10.41 -33.97 -47.06 0 -46.66 0 0 70.89 0 0 -40.14 0 18.99 12.99 -13.95 0 -8.88 14.22 0 0 0 
1.07 91.90 0.46 -0.53 -2.75 -9.88 -0.55 7.21 0 3.12 0.58 -1.84 0 16.55 0 -2.49 8.26 -8.05 0 34.21 -0 -8.70 17.93 -5.07 0 6.29 0 9.42 -11.44 21.75 4.06 26.61 -1.12 -0.60 -4.63 7.02 14.17 0 0 -81.94 52.39 18.42 26.12 0 0 0 0 -24.01 27.71 0 0 4.91 -45.03 3.79 2.29 -0.46 1.83 60.60 57.15 -83.44 5.29 0 0 -43.70 3.09 4.65 3.01 0 0 15.87 1.94 0.96 9.37 0.29 2.59 -16.73 -0.62 6.85 4.34 0 0 -8.77 1.99 2.55 2.16 0 0 -10.17 1.94 0.96 9.47 0.83 0.29 -19.06 -4.22 6.15 4.77 0 0 -14.55 1.74 2.24 2.87 0 0 -7.07 1.93 1.37 8.65 1.01 -1.70 -19.92 1.33 6.35 4.54 0 0 -12.84 1.94 0.96 2.50 0 0 -3.17 1.94 0.96 7.69 0.66 -3.90 -15.93 -8.41 3.98 3.21 0 0 -11.57 1.94 0.96 1.92 0 0 -6.37 1.94 0.96 -4.06 26.61 -1.12 -0.27 -4.54 -3.86 -14.17 0 0 83.03 -29.50 16.29 -26.12 0 0 0 0 119.70 -27.71 0 0 -2.23 -22.93 28.03 -2.29 -0.46 1.83 -141.79 4.65 171.78 -5.29 0 0 24.80 0.35 22.00 -3.01 0 0 -10.64 -0.02 -0.33 -9.37 0.29 2.59 7.40 -3.36 -19.28 -4.34 0 0 8.29 0.18 -1.09 -2.16 0 0 10.45 -0.09 -0.99 -9.47 0.83 0.29 32.85 -1.32 -13.92 -4.77 0 0 31.23 -0.92 -2.11 -2.87 0 0 7.21 0.05 -2.14 -8.65 1.01 -1.70 22.56 -10.58 -17.10 -4.54 0 0 56.08 -0.62 -0.48 -2.50 0 0 9.02 -0 -1.26 -7.69 0.66 -3.90 17.28 -25.93 -8.78 -3.21 0 0 60.38 -3.86 -3.21 -1.92 0 0 60.70 -3.80 -3.14 8.73 -0 0 -0.70 -8.08 24.93 0 -46.66 0 0 30.97 0 0 -40.14 0 1.00 -21.49 -13.42 0 -8.88 14.22 0 0 0 -8.73 0 -0 -10.36 -33.98 -47.06 0 -46.66 0 0 70.91 0 0 -40.14 0 18.99 12.99 -13.95 0 -8.88 14.22 0 0 0 
1.07 91.89 0.46 -0.58 -2.74 -9.88 -0.55 7.21 0 3.16 0.58 -1.84 0 16.55 0 -2.50 8.26 -8.05 0 34.21 -0 -8.71 17.92 -5.07 0 6.29 0 9.43 -11.43 21.76 4.06 26.61 -1.12 -0.59 -4.63 7.03 14.17 0 0 -81.95 52.46 18.51 26.12 0 0 0 0 -24.09 27.71 0 0 4.91 -45.00 3.81 2.29 -0.46 1.83 60.65 57.15 -83.47 5.29 0 0 -43.70 3.12 4.67 3.01 0 0 15.87 1.97 0.98 9.37 0.29 2.59 -16.74 -0.59 6.86 4.34 0 0 -8.77 2.01 2.56 2.16 0 0 -10.17 1.97 0.98 9.47 0.83 0.29 -19.06 -4.19 6.16 4.77 0 0 -14.55 1.77 2.26 2.87 0 0 -7.07 1.96 1.38 8.65 1.01 -1.70 -19.92 1.36 6.36 4.54 0 0 -12.84 1.97 0.98 2.50 0 0 -3.17 1.97 0.98 7.69 0.66 -3.90 -15.93 -8.39 4.00 3.21 0 0 -11.57 1.97 0.98 1.92 0 0 -6.37 1.97 0.98 -4.06 26.61 -1.12 -0.27 -4.54 -3.86 -14.17 0 0 83.07 -29.56 16.30 -26.12 0 0 0 0 119.95 -27.71 0 0 -2.22 -22.97 28.07 -2.29 -0.46 1.83 -141.79 4.65 171.78 -5.29 0 0 24.80 0.35 22.00 -3.01 0 0 -10.64 -0.02 -0.33 -9.37 0.29 2.59 7.40 -3.36 -19.28 -4.34 0 0 8.29 0.18 -1.09 -2.16 0 0 10.45 -0.09 -0.99 -9.47 0.83 0.29 32.85 -1.32 -13.92 -4.77 0 0 31.23 -0.92 -2.11 -2.87 0 0 7.21 0.05 -2.14 -8.65 1.01 -1.70 22.56 -10.58 -17.10 -4.54 0 0 56.08 -0.62 -0.48 -2.50 0 0 9.02 -0 -1.26 -7.69 0.66 -3.90 17.28 -25.93 -8.78 -3.21 0 0 60.38 -3.86 -3.21 -1.92 0 0 60.70 -3.80 -3.14 8.73 -0 0 -0.66 -8.09 24.92 0 -46.66 0 0 30.97 0 0 -40.14 0 1.01 -21.49 -13.42 0 -8.88 14.22 0 0 0 -8.73 0 -0 -10.31 -33.98 -47.06 0 -46.66 0 0 70.93 0 0 -40.14 0 19.00 13.00 -13.95 0 -8.88 14.22 0 0 0 
